<?xml version="1.0" encoding="UTF-8"?>
<svg id="OBJECTS" xmlns="http://www.w3.org/2000/svg" viewBox="0 0 189.03 255.04">
  <defs>
    <style>
      .cls-1 {
        fill: #fff;
      }

      .cls-2 {
        fill: #ea536c;
      }

      .cls-3 {
        fill: #081720;
      }

      .cls-4 {
        fill: #ffc72c;
      }

      .cls-5 {
        fill: #ccd3d6;
      }
    </style>
  </defs>
  <g>
    <g>
      <path class="cls-1" d="m82.62,49.94S36.57-3.24,13.5.16C-9.57,3.55,3.92,111.83,3.92,111.83l78.69-61.89Z"/>
      <path class="cls-2" d="m59.58,62.84s-29.5-31.57-41.56-29.93c-12.06,1.64-5.76,67.15-5.76,67.15l47.32-37.22Z"/>
    </g>
    <g>
      <path class="cls-1" d="m106.42,49.94S152.46-3.24,175.54.16c23.07,3.39,9.57,111.67,9.57,111.67l-78.69-61.89Z"/>
      <path class="cls-2" d="m129.45,62.84s29.5-31.57,41.56-29.93,5.76,67.15,5.76,67.15l-47.32-37.22Z"/>
    </g>
  </g>
  <path class="cls-1" d="m97.35,37.21c-.94-.02-1.89-.02-2.83,0-.95-.01-1.89-.01-2.83,0C37.56,38.15-3.81,89.19,1.03,146.86c6.25,74.38,55.09,108.19,93.49,108.19s87.24-33.8,93.49-108.19c4.84-57.67-36.53-108.7-90.65-109.65Z"/>
  <path class="cls-5" d="m73.05,39.58l-3.1-3.18-13.76,9.15c5.3-2.27,10.85-4.31,16.86-5.97Z"/>
  <path class="cls-5" d="m115.98,39.58c1.21-1.25,2.37-2.44,3.11-3.18l13.75,9.15c-5.3-2.27-10.85-4.31-16.86-5.97Z"/>
  <g>
    <path class="cls-2" d="m54.8,207.95s-8.64,3.78-11.47,3.78-5.12-2.29-5.12-5.12,2.29-5.12,5.12-5.12c6.64-.11,11.47,6.45,11.47,6.45Z"/>
    <path class="cls-2" d="m134.23,207.95s8.64,3.78,11.47,3.78,5.12-2.29,5.12-5.12-2.29-5.12-5.12-5.12c-6.64-.11-11.47,6.45-11.47,6.45Z"/>
  </g>
  <g>
    <path class="cls-3" d="m85.73,185.41h0c-1.8.31-3.12,1.87-3.12,3.69h0c0,1.49.88,2.83,2.24,3.43l9.66,4.25h0s0,0,0,0l9.66-4.25c1.36-.6,2.24-1.94,2.24-3.43h0c0-1.83-1.32-3.39-3.12-3.69h0c-5.81-.99-11.75-.99-17.56,0Z"/>
    <path class="cls-3" d="m70.42,212.06c-2.85,0-5.78-.45-8.72-1.39l-10-3.18c-3.05-.97-6.2-1.06-9.09-.26l-.27-.96c3.08-.86,6.42-.77,9.66.27l10,3.18c12.88,4.1,25.52-1.4,32.2-14.01l.88.47c-5.4,10.18-14.56,15.89-24.66,15.89Z"/>
    <path class="cls-3" d="m118.62,212.06c-10.11,0-19.27-5.7-24.66-15.89l.88-.47c6.68,12.61,19.32,18.11,32.2,14.01l10-3.18c3.24-1.03,6.58-1.12,9.66-.27l-.27.96c-2.89-.81-6.04-.72-9.09.26l-10,3.18c-2.94.94-5.87,1.39-8.72,1.39Z"/>
  </g>
  <g>
    <g>
      <path class="cls-2" d="m14.11,127.3c2.46,23.76,21.78,45.47,63.12,39.07-7.24-29.98-32.85-48.88-63.12-39.07Z"/>
      <path class="cls-3" d="m25.12,134.95c2.46,23.76,20.11,32.82,49.88,30.16-10.02-25.45-24.94-37.57-49.88-30.16Z"/>
    </g>
    <g>
      <path class="cls-2" d="m175.17,127.3c-2.46,23.76-21.78,45.47-63.12,39.07,7.24-29.98,32.85-48.88,63.12-39.07Z"/>
      <path class="cls-3" d="m164.15,134.95c-2.46,23.76-20.11,32.82-49.88,30.16,10.02-25.45,24.94-37.57,49.88-30.16Z"/>
    </g>
  </g>
  <path class="cls-2" d="m30.9,104.72c23.32-.49,42.36,14.19,49.99,35.89,2.87,7.99,4.46,16.54,4.12,24.95-1.23-7.36-3.25-14.48-6-21.24-8.8-22-25.01-34.79-48.11-39.6h0Z"/>
  <g>
    <path class="cls-2" d="m50.45,68.49c-10.48,6.31-11.98,16.88-.81,23.35,9.02,5.48,20.81,11.8,21.73,23.86-2.88-7.81-9.61-12.64-16.68-16.41-4.87-2.72-10.43-5.29-13.83-10.03-5.9-8.36.29-18.96,9.58-20.77h0Z"/>
    <path class="cls-2" d="m138.58,68.49c9.29,1.82,15.48,12.41,9.58,20.77-3.39,4.74-8.96,7.3-13.83,10.03-7.07,3.77-13.8,8.6-16.68,16.41.9-12.04,12.72-18.4,21.73-23.86,11.18-6.46,9.66-17.05-.81-23.35h0Z"/>
  </g>
  <path class="cls-2" d="m158.38,104.72c-23.11,4.81-39.31,17.6-48.11,39.6-2.75,6.76-4.77,13.88-6,21.24-.34-8.41,1.25-16.96,4.12-24.95,7.63-21.7,26.68-36.38,49.99-35.89h0Z"/>
  <g>
    <g>
      <path class="cls-4" d="m28.28,114.8c0,3.02-2.45,5.47-5.47,5.47s-5.47-2.45-5.47-5.47,2.45-5.47,5.47-5.47,5.47,2.45,5.47,5.47Z"/>
      <path class="cls-4" d="m41.22,117.04c0,2.32-1.88,4.19-4.19,4.19s-4.19-1.88-4.19-4.19,1.88-4.19,4.19-4.19,4.19,1.88,4.19,4.19Z"/>
      <circle class="cls-4" cx="48.83" cy="121.53" r="2.74"/>
    </g>
    <g>
      <path class="cls-4" d="m160.75,114.8c0,3.02,2.45,5.47,5.47,5.47s5.47-2.45,5.47-5.47-2.45-5.47-5.47-5.47-5.47,2.45-5.47,5.47Z"/>
      <path class="cls-4" d="m147.81,117.04c0,2.32,1.88,4.19,4.19,4.19s4.19-1.88,4.19-4.19-1.88-4.19-4.19-4.19-4.19,1.88-4.19,4.19Z"/>
      <circle class="cls-4" cx="140.2" cy="121.53" r="2.74"/>
    </g>
  </g>
  <path class="cls-2" d="m118.51,89.37c.96,18.05-16.87,31.27-33.78,23.62-15.82-7-19.18-28.4-6.35-39.76,14.27-13.15,39.21-3.46,40.14,16.14h0Zm-5.39,0c.86-10.52-7.55-20.77-18.6-20.41-17.2.34-25.17,21.44-12.32,32.73,10.8,9.73,30.05,2.55,30.93-12.33h0Z"/>
  <g>
    <path class="cls-2" d="m98.78,53.67c0,4.78-4.26,8.66-4.26,8.66,0,0-4.26-3.88-4.26-8.66s4.26-8.66,4.26-8.66c0,0,4.26,3.88,4.26,8.66Z"/>
    <path class="cls-2" d="m90.84,57.19c2.77,1.51,3.68,5.2,3.68,5.2,0,0-3.59,1.25-6.36-.26s-3.68-5.2-3.68-5.2c0,0,3.59-1.25,6.36.26Z"/>
    <path class="cls-2" d="m98.11,57.19c-2.77,1.51-3.68,5.2-3.68,5.2,0,0,3.59,1.25,6.36-.26,2.77-1.51,3.68-5.2,3.68-5.2,0,0-3.59-1.25-6.36.26Z"/>
  </g>
  <g>
    <g>
      <path class="cls-4" d="m48.07,187.11s-10.94-1.16-21.56-7.46c-10.61-6.3-16.88-15.35-16.88-15.35,0,0,10.94,1.16,21.56,7.46,10.61,6.3,16.88,15.35,16.88,15.35Z"/>
      <path class="cls-4" d="m47.54,189.24s-7.04,4.09-16.13,4.97c-9.09.88-16.79-1.78-16.79-1.78,0,0,7.04-4.09,16.13-4.97,9.09-.88,16.79,1.78,16.79,1.78Z"/>
    </g>
    <g>
      <path class="cls-4" d="m140.96,187.11s10.94-1.16,21.56-7.46c10.61-6.3,16.88-15.35,16.88-15.35,0,0-10.94,1.16-21.56,7.46-10.61,6.3-16.88,15.35-16.88,15.35Z"/>
      <path class="cls-4" d="m141.5,189.24s7.04,4.09,16.13,4.97c9.09.88,16.79-1.78,16.79-1.78,0,0-7.04-4.09-16.13-4.97-9.09-.88-16.79,1.78-16.79,1.78Z"/>
    </g>
  </g>
</svg>